<svg xmlns="http://www.w3.org/2000/svg" width="360" height="360" viewBox="0 0 360 360"><g transform="translate(-17.50 -3.00) scale(1.0000)" ><path d="M 46 302 C 66 272 122 284 180 282 C 240 280 292 270 314 302 C 324 318 292 326 180 328 C 70 326 36 318 46 302 Z" fill="#7C5B40" stroke="#3B2A1E" stroke-width="7" stroke-linecap="round" stroke-linejoin="round" /><ellipse cx="96" cy="306" rx="16" ry="5" fill="#A5836A" opacity="0.8"/><ellipse cx="270" cy="304" rx="14" ry="4.5" fill="#A5836A" opacity="0.8"/><ellipse cx="150" cy="316" rx="10" ry="3.5" fill="#A5836A" opacity="0.6"/><g ><path d="M 184 210 L 100 132.6 Q 128 122.2 133.9 92.8 Q 163.1 99.4 184 78 Q 204.9 99.4 234.1 92.8 Q 240 122.2 268 132.6 Z" fill="#A78A56" stroke="#3B2A1E" stroke-width="7" stroke-linecap="round" stroke-linejoin="round" /><path d="M 166.5 143 L 140.4 102.9" fill="none" stroke="#6E5735" stroke-width="3.5" stroke-linecap="round" stroke-linejoin="round" opacity="0.55"/><path d="M 184 137.8 L 184 90" fill="none" stroke="#6E5735" stroke-width="3.5" stroke-linecap="round" stroke-linejoin="round" opacity="0.55"/><path d="M 201.5 143 L 227.6 102.9" fill="none" stroke="#6E5735" stroke-width="3.5" stroke-linecap="round" stroke-linejoin="round" opacity="0.55"/><circle cx="129.8" cy="152.4" r="3.6" fill="#79DBF8" /><circle cx="128.6" cy="151.2" r="1.3" fill="#FFFFFF" /><circle cx="148.1" cy="125.7" r="3.6" fill="#79DBF8" /><circle cx="147" cy="124.5" r="1.3" fill="#FFFFFF" /><circle cx="146.9" cy="100.1" r="4.2" fill="#79DBF8" /><circle cx="145.5" cy="98.8" r="1.5" fill="#FFFFFF" /><circle cx="178" cy="113.3" r="3.6" fill="#79DBF8" /><circle cx="176.9" cy="112.1" r="1.3" fill="#FFFFFF" /><circle cx="190.9" cy="91.2" r="4.2" fill="#79DBF8" /><circle cx="189.6" cy="89.8" r="1.5" fill="#FFFFFF" /><circle cx="209.9" cy="119.2" r="3.6" fill="#79DBF8" /><circle cx="208.7" cy="118" r="1.3" fill="#FFFFFF" /><circle cx="232.7" cy="107.7" r="4.2" fill="#79DBF8" /><circle cx="231.4" cy="106.3" r="1.5" fill="#FFFFFF" /><circle cx="233.4" cy="141.5" r="3.6" fill="#79DBF8" /><circle cx="232.2" cy="140.3" r="1.3" fill="#FFFFFF" /><path d="M 232 246 C 264 236 296 240 314 214 C 322 200 344 196 352 210 C 360 224 352 244 348 252 C 354 264 350 286 336 290 C 322 294 312 276 310 262 C 294 274 262 288 232 284 Z" fill="#A78A56" stroke="#3B2A1E" stroke-width="7" stroke-linecap="round" stroke-linejoin="round" /><path d="M 318 232 L 344 214" fill="none" stroke="#6E5735" stroke-width="3.5" stroke-linecap="round" stroke-linejoin="round" opacity="0.55"/><path d="M 320 246 L 346 252" fill="none" stroke="#6E5735" stroke-width="3.5" stroke-linecap="round" stroke-linejoin="round" opacity="0.55"/><path d="M 318 258 L 338 282" fill="none" stroke="#6E5735" stroke-width="3.5" stroke-linecap="round" stroke-linejoin="round" opacity="0.55"/><circle cx="336" cy="226" r="4" fill="#79DBF8" /><circle cx="334.7" cy="224.7" r="1.4" fill="#FFFFFF" /><circle cx="334" cy="262" r="3.5" fill="#79DBF8" /><circle cx="332.9" cy="260.9" r="1.3" fill="#FFFFFF" /><circle cx="298" cy="250" r="3.5" fill="#79DBF8" /><circle cx="296.9" cy="248.9" r="1.3" fill="#FFFFFF" /><circle cx="268" cy="254" r="3" fill="#79DBF8" /><circle cx="267" cy="253" r="1.1" fill="#FFFFFF" /><path d="M 180 118 C 242 118 276 166 275 224 C 274 270 246 300 180 300 C 114 300 86 270 85 224 C 84 166 118 118 180 118 Z" fill="#BCA271" stroke="#3B2A1E" stroke-width="7" stroke-linecap="round" stroke-linejoin="round" /><clipPath id="bodyclip"><path d="M 180 118 C 242 118 276 166 275 224 C 274 270 246 300 180 300 C 114 300 86 270 85 224 C 84 166 118 118 180 118 Z"/></clipPath><g clip-path="url(#bodyclip)"><ellipse cx="180" cy="262" rx="66" ry="44" fill="#F3E6C4" /><path d="M 275 224 C 274 270 246 300 180 300 C 150 300 128 294 112 282 C 150 302 236 302 262 250 C 270 236 272 226 275 224 Z" fill="#9C8353" opacity="0.55"/></g><circle cx="118" cy="150" r="6" fill="#79DBF8" /><circle cx="116.1" cy="148.1" r="2.2" fill="#FFFFFF" /><circle cx="104" cy="178" r="5" fill="#79DBF8" /><circle cx="102.4" cy="176.4" r="1.8" fill="#FFFFFF" /><circle cx="133" cy="132" r="4.5" fill="#79DBF8" /><circle cx="131.6" cy="130.6" r="1.6" fill="#FFFFFF" /><circle cx="96" cy="210" r="4.5" fill="#79DBF8" /><circle cx="94.6" cy="208.6" r="1.6" fill="#FFFFFF" /><circle cx="242" cy="150" r="6" fill="#79DBF8" /><circle cx="240.1" cy="148.1" r="2.2" fill="#FFFFFF" /><circle cx="256" cy="178" r="5" fill="#79DBF8" /><circle cx="254.4" cy="176.4" r="1.8" fill="#FFFFFF" /><circle cx="227" cy="132" r="4.5" fill="#79DBF8" /><circle cx="225.6" cy="130.6" r="1.6" fill="#FFFFFF" /><circle cx="264" cy="210" r="4.5" fill="#79DBF8" /><circle cx="262.6" cy="208.6" r="1.6" fill="#FFFFFF" /><circle cx="110" cy="240" r="4" fill="#79DBF8" /><circle cx="108.7" cy="238.7" r="1.4" fill="#FFFFFF" /><circle cx="250" cy="240" r="4" fill="#79DBF8" /><circle cx="248.7" cy="238.7" r="1.4" fill="#FFFFFF" /><circle cx="150" cy="152" r="3.5" fill="#79DBF8" /><circle cx="148.9" cy="150.9" r="1.3" fill="#FFFFFF" /><circle cx="210" cy="152" r="3.5" fill="#79DBF8" /><circle cx="208.9" cy="150.9" r="1.3" fill="#FFFFFF" /><ellipse cx="120" cy="182" rx="17" ry="11" fill="#F6A0A8" opacity="1.0"/><ellipse cx="240" cy="182" rx="17" ry="11" fill="#F6A0A8" opacity="1.0"/><path d="M 150 186 Q 180 230 210 186 Q 180 196 150 186 Z" fill="#4A1C1C" stroke="#3B2A1E" stroke-width="6" stroke-linecap="round" stroke-linejoin="round" /><clipPath id="m_grin"><path d="M 150 186 Q 180 230 210 186 Q 180 196 150 186 Z"/></clipPath><g clip-path="url(#m_grin)"><ellipse cx="180" cy="224" rx="20" ry="14" fill="#F27B90" /></g><circle cx="147" cy="122" r="36" fill="#FFFFFF" stroke="#3B2A1E" stroke-width="7" /><circle cx="213" cy="122" r="36" fill="#FFFFFF" stroke="#3B2A1E" stroke-width="7" /><circle cx="150" cy="129" r="18" fill="#2A1B12" /><circle cx="144" cy="122" r="7" fill="#FFFFFF" /><circle cx="156" cy="134" r="4" fill="#FFFFFF" /><g transform="translate(154 124) rotate(0)" ><path d="M 0 -6 Q 0.7 -0.7 6 0 Q 0.7 0.7 0 6 Q -0.7 0.7 -6 0 Q -0.7 -0.7 0 -6 Z" fill="#FFFFFF" stroke="#3B2A1E" stroke-width="4.5" stroke-linecap="round" stroke-linejoin="round" /></g><circle cx="210" cy="129" r="18" fill="#2A1B12" /><circle cx="204" cy="122" r="7" fill="#FFFFFF" /><circle cx="216" cy="134" r="4" fill="#FFFFFF" /><g transform="translate(214 124) rotate(0)" ><path d="M 0 -6 Q 0.7 -0.7 6 0 Q 0.7 0.7 0 6 Q -0.7 0.7 -6 0 Q -0.7 -0.7 0 -6 Z" fill="#FFFFFF" stroke="#3B2A1E" stroke-width="4.5" stroke-linecap="round" stroke-linejoin="round" /></g><g transform="translate(118 214) scale(-1 1) rotate(-128) scale(1)" ><path d="M 0 -13 C 16 -22 44 -20 54 -6 C 60 2 52 16 30 16 C 14 16 2 12 0 0 Z" fill="#BCA271" stroke="#3B2A1E" stroke-width="7" stroke-linecap="round" stroke-linejoin="round" /><path d="M 14 -8 L 44 -9" fill="none" stroke="#6E5735" stroke-width="3" stroke-linecap="round" stroke-linejoin="round" opacity="0.45"/><path d="M 14 4 L 42 6" fill="none" stroke="#6E5735" stroke-width="3" stroke-linecap="round" stroke-linejoin="round" opacity="0.45"/><circle cx="30" cy="-4" r="3.2" fill="#79DBF8" /><circle cx="29" cy="-5" r="1.2" fill="#FFFFFF" /></g><g transform="translate(242 214) rotate(-128) scale(1)" ><path d="M 0 -13 C 16 -22 44 -20 54 -6 C 60 2 52 16 30 16 C 14 16 2 12 0 0 Z" fill="#BCA271" stroke="#3B2A1E" stroke-width="7" stroke-linecap="round" stroke-linejoin="round" /><path d="M 14 -8 L 44 -9" fill="none" stroke="#6E5735" stroke-width="3" stroke-linecap="round" stroke-linejoin="round" opacity="0.45"/><path d="M 14 4 L 42 6" fill="none" stroke="#6E5735" stroke-width="3" stroke-linecap="round" stroke-linejoin="round" opacity="0.45"/><circle cx="30" cy="-4" r="3.2" fill="#79DBF8" /><circle cx="29" cy="-5" r="1.2" fill="#FFFFFF" /></g></g><g transform="translate(72 90) rotate(-16)" ><path d="M 0 19 C -22 4 -21 -15 -10 -15 C -4 -15 0 -9 0 -6 C 0 -9 4 -15 10 -15 C 21 -15 22 4 0 19 Z" fill="#FF5C7A" stroke="#3B2A1E" stroke-width="7" stroke-linecap="round" stroke-linejoin="round" /><ellipse cx="-8.4" cy="-7.6" rx="3.6" ry="2.4" fill="#FFFFFF" opacity="0.85" transform="rotate(-30)"/></g><g transform="translate(296 74) rotate(18)" ><path d="M 0 15.2 C -17.6 3.2 -16.8 -12 -8 -12 C -3.2 -12 0 -7.2 0 -4.8 C 0 -7.2 3.2 -12 8 -12 C 16.8 -12 17.6 3.2 0 15.2 Z" fill="#FF5C7A" stroke="#3B2A1E" stroke-width="7" stroke-linecap="round" stroke-linejoin="round" /><ellipse cx="-6.7" cy="-6.1" rx="2.9" ry="1.9" fill="#FFFFFF" opacity="0.85" transform="rotate(-30)"/></g><g transform="translate(320 150) rotate(8)" ><path d="M 0 9.5 C -11 2 -10.5 -7.5 -5 -7.5 C -2 -7.5 0 -4.5 0 -3 C 0 -4.5 2 -7.5 5 -7.5 C 10.5 -7.5 11 2 0 9.5 Z" fill="#FF5C7A" stroke="#3B2A1E" stroke-width="7" stroke-linecap="round" stroke-linejoin="round" /><ellipse cx="-4.2" cy="-3.8" rx="1.8" ry="1.2" fill="#FFFFFF" opacity="0.85" transform="rotate(-30)"/></g><g transform="translate(48 170) rotate(-12)" ><path d="M 0 8.5 C -9.9 1.8 -9.5 -6.8 -4.5 -6.8 C -1.8 -6.8 0 -4 0 -2.7 C 0 -4 1.8 -6.8 4.5 -6.8 C 9.5 -6.8 9.9 1.8 0 8.5 Z" fill="#FF5C7A" stroke="#3B2A1E" stroke-width="7" stroke-linecap="round" stroke-linejoin="round" /><ellipse cx="-3.8" cy="-3.4" rx="1.6" ry="1.1" fill="#FFFFFF" opacity="0.85" transform="rotate(-30)"/></g><g transform="translate(292 240) rotate(14)" ><path d="M 0 7.6 C -8.8 1.6 -8.4 -6 -4 -6 C -1.6 -6 0 -3.6 0 -2.4 C 0 -3.6 1.6 -6 4 -6 C 8.4 -6 8.8 1.6 0 7.6 Z" fill="#FF5C7A" stroke="#3B2A1E" stroke-width="7" stroke-linecap="round" stroke-linejoin="round" /><ellipse cx="-3.4" cy="-3" rx="1.4" ry="1" fill="#FFFFFF" opacity="0.85" transform="rotate(-30)"/></g><g transform="translate(72 90) rotate(-90)" ><path d="M 26 -15 A 30 30 0 0 1 26 15" fill="none" stroke="#3B2A1E" stroke-width="5" stroke-linecap="round" stroke-linejoin="round" /><path d="M 35.5 -20.5 A 41 41 0 0 1 35.5 20.5" fill="none" stroke="#3B2A1E" stroke-width="5" stroke-linecap="round" stroke-linejoin="round" /></g><g transform="translate(296 74) rotate(-90)" ><path d="M 22.5 -13 A 26 26 0 0 1 22.5 13" fill="none" stroke="#3B2A1E" stroke-width="5" stroke-linecap="round" stroke-linejoin="round" /><path d="M 32 -18.5 A 37 37 0 0 1 32 18.5" fill="none" stroke="#3B2A1E" stroke-width="5" stroke-linecap="round" stroke-linejoin="round" /></g></g></svg>